<svg width="25" height="25" viewBox="0 0 25 25" fill="none" xmlns="http://www.w3.org/2000/svg">
<path d="M8.03571 5.20833H16.0714V8.33333L22.3214 4.16667L16.0714 0V3.125H8.03571C3.57143 3.125 0 7.29167 0 12.5C0 13.75 0.178571 15 0.714286 16.25L2.32143 15.2083C1.96429 14.375 1.78571 13.5417 1.78571 12.5C1.78571 8.54167 4.64286 5.20833 8.03571 5.20833ZM24.2857 8.75L22.6786 9.79167C23.0357 10.625 23.2143 11.4583 23.2143 12.5C23.2143 16.4583 20.3571 19.7917 16.9643 19.7917H8.92857V16.6667L2.67857 20.8333L8.92857 25V21.875H16.9643C21.4286 21.875 25 17.7083 25 12.5C25 11.25 24.8214 10 24.2857 8.75Z" fill="white"/>
</svg>
