<svg width="30" height="30" viewBox="0 0 30 30" fill="none" xmlns="http://www.w3.org/2000/svg">
<g clip-path="url(#clip0_2013_280)">
<mask id="mask0_2013_280" style="mask-type:luminance" maskUnits="userSpaceOnUse" x="0" y="0" width="30" height="30">
<path d="M30 0H0V30H30V0Z" fill="white"/>
</mask>
<g mask="url(#mask0_2013_280)">
<path d="M14.9853 0.0491943C6.73414 0.0491943 0.0449219 6.73822 0.0449219 14.9894C0.0449219 23.2409 6.73414 29.9294 14.9853 29.9294C23.2374 29.9294 29.9258 23.2409 29.9258 14.9894C29.9258 6.73873 23.2375 0.0491943 14.9853 0.0491943ZM21.8368 21.5972C21.5693 22.0361 20.9948 22.1753 20.5559 21.9059C17.048 19.7632 12.6321 19.2779 7.4315 20.4661C6.93039 20.5803 6.43086 20.2663 6.31663 19.765C6.20195 19.2637 6.51469 18.7641 7.0171 18.65C12.7083 17.3497 17.5901 17.9095 21.5282 20.3163C21.9671 20.5857 22.1063 21.1584 21.8368 21.5972ZM23.6655 17.5292C23.3283 18.0773 22.6112 18.2503 22.0634 17.9131C18.0475 15.4447 11.9258 14.7298 7.17571 16.1717C6.55963 16.3578 5.90897 16.0106 5.72201 15.3956C5.53648 14.7796 5.88384 14.1302 6.49878 13.9429C11.9247 12.2965 18.6701 13.094 23.282 15.928C23.8297 16.2652 24.0027 16.9822 23.6655 17.5292ZM23.8225 13.2931C19.0073 10.433 11.0628 10.1701 6.46544 11.5654C5.72722 11.7893 4.94649 11.3725 4.72277 10.6343C4.49904 9.8957 4.91545 9.11553 5.65423 8.89109C10.9317 7.28898 19.7049 7.59849 25.2487 10.8896C25.9142 11.2837 26.1318 12.1413 25.7376 12.8045C25.3451 13.4685 24.4844 13.6874 23.8225 13.2931Z" fill="#00FF6A"/>
</g>
</g>
<defs>
<clipPath id="clip0_2013_280">
<rect width="30" height="30" fill="white"/>
</clipPath>
</defs>
</svg>
